HIERARCHY
ROOT reference
{
  OFFSET 0 0 0
  CHANNELS 6 Xposition Yposition Zposition Zrotation Xrotation Yrotation
  JOINT Hips
  {
    OFFSET 27.8326 89.266 140.584
    CHANNELS 6 Xposition Yposition Zposition Zrotation Xrotation Yrotation
    JOINT Spine
    {
      OFFSET 0 7.81434 0
      CHANNELS 6 Xposition Yposition Zposition Zrotation Xrotation Yrotation
      JOINT Spine1
      {
        OFFSET 0 23.3781 0
        CHANNELS 6 Xposition Yposition Zposition Zrotation Xrotation Yrotation
        JOINT Neck
        {
          OFFSET 0 23.2821 2.11656
          CHANNELS 6 Xposition Yposition Zposition Zrotation Xrotation Yrotation
          JOINT Head
          {
            OFFSET 0 13.3416 -1.90594
            CHANNELS 6 Xposition Yposition Zposition Zrotation Xrotation Yrotation
            End Site
            {
              OFFSET 0 23.8242 0
            }
          }
        }
        JOINT LeftShoulder
        {
          OFFSET 3.82472 21.4916 -0.175476
          CHANNELS 6 Xposition Yposition Zposition Zrotation Xrotation Yrotation
          JOINT LeftArm
          {
            OFFSET 10.8239 0 0
            CHANNELS 6 Xposition Yposition Zposition Zrotation Xrotation Yrotation
            JOINT LeftForeArm
            {
              OFFSET 28.5356 0 0
              CHANNELS 6 Xposition Yposition Zposition Zrotation Xrotation Yrotation
              JOINT LeftHand
              {
                OFFSET 24.5315 0 0
                CHANNELS 6 Xposition Yposition Zposition Zrotation Xrotation Yrotation
                End Site
                {
                  OFFSET 14.2945 0 0
                }
              }
            }
          }
        }
        JOINT RightShoulder
        {
          OFFSET -3.77033 21.4916 -0.175476
          CHANNELS 6 Xposition Yposition Zposition Zrotation Xrotation Yrotation
          JOINT RightArm
          {
            OFFSET -10.8239 0 0
            CHANNELS 6 Xposition Yposition Zposition Zrotation Xrotation Yrotation
            JOINT RightForeArm
            {
              OFFSET -28.5356 0 0
              CHANNELS 6 Xposition Yposition Zposition Zrotation Xrotation Yrotation
              JOINT RightHand
              {
                OFFSET -24.5315 0 0
                CHANNELS 6 Xposition Yposition Zposition Zrotation Xrotation Yrotation
                End Site
                {
                  OFFSET -14.2945 0 0
                }
              }
            }
          }
        }
      }
    }
    JOINT LeftUpLeg
    {
      OFFSET 9.52968 0 0
      CHANNELS 6 Xposition Yposition Zposition Zrotation Xrotation Yrotation
      JOINT LeftLeg
      {
        OFFSET 0 -40.1884 0
        CHANNELS 6 Xposition Yposition Zposition Zrotation Xrotation Yrotation
        JOINT LeftFoot
        {
          OFFSET 0 -39.9954 0
          CHANNELS 6 Xposition Yposition Zposition Zrotation Xrotation Yrotation
          JOINT LeftToeBase
          {
            OFFSET 0 -6.19429 14.2945
            CHANNELS 6 Xposition Yposition Zposition Zrotation Xrotation Yrotation
            End Site
            {
              OFFSET 0 0 3.81187
            }
          }
        }
      }
    }
    JOINT RightUpLeg
    {
      OFFSET -9.52968 0 0
      CHANNELS 6 Xposition Yposition Zposition Zrotation Xrotation Yrotation
      JOINT RightLeg
      {
        OFFSET 0 -40.1884 0
        CHANNELS 6 Xposition Yposition Zposition Zrotation Xrotation Yrotation
        JOINT RightFoot
        {
          OFFSET 0 -39.9954 0
          CHANNELS 6 Xposition Yposition Zposition Zrotation Xrotation Yrotation
          JOINT RightToeBase
          {
            OFFSET 0 -6.19429 14.2945
            CHANNELS 6 Xposition Yposition Zposition Zrotation Xrotation Yrotation
            End Site
            {
              OFFSET 0 0 3.81187
            }
          }
        }
      }
    }
  }
}
MOTION
Frames:	8
Frame Time:	0.004
0 0 0 0 0 -0 2.35002 81.122 -201.688 0.41921 -2.11749 2.33586 0 7.81434 -2.84217e-014 -1.84293 -2.66326 -0.44125 8.88178e-016 23.3781 0 -0.13545 -0.265027 -0.398632 -8.88178e-016 23.2821 2.11656 0.946453 21.8992 0.135904 -8.88178e-016 13.3416 -1.90594 -2.18055 -3.14463 -0.173053 3.82472 21.4916 -0.175476 13.0573 3.19031 4.98188 10.8239 0 0 -19.1949 -2.44654 2.86812 28.5356 0 0 0.892557 -2.50045 2.15241 24.5315 -2.84217e-014 0 1.16251 -2.50751 0.969198 -3.77033 21.4916 -0.175476 -14.7752 -1.76104 7.89646 -10.8239 0 2.84217e-014 12.2081 -2.73868 -0.890581 -28.5356 0 0 -2.59307 1.8063 -1.17875 -24.5315 2.84217e-014 0 -0.296949 1.78545 -2.24952 9.52968 1.42109e-014 0 -0.384829 11.2518 3.66312 0 -40.1884 0 -4.52534 -6.06703 -2.2616 0 -39.9954 0 7.02071 -8.2148 3.61161 0 -6.19429 14.2945 -3.97569e-016 7.95139e-016 -0 -9.52968 1.42109e-014 2.84217e-014 -1.24074 6.77764 -1.75203 8.88178e-016 -40.1884 0 2.44463 0.774425 0.573564 -4.44089e-016 -39.9954 0 -4.32043 -12.0458 1.62014 1.77636e-015 -6.19429 14.2945 -2.48481e-016 1.59028e-015 -3.97569e-016 
0 0 0 0 0 -0 2.35002 81.122 -201.688 0.417801 -2.09779 2.31934 -1.77636e-015 7.81434 0 -1.84255 -2.66327 -0.432993 1.77636e-015 23.3781 -2.84217e-014 -0.135623 -0.295867 -0.390563 1.77636e-015 23.2821 2.11656 0.928321 21.9409 0.135944 -8.88178e-016 13.3416 -1.90594 -2.17731 -3.15723 -0.173055 3.82472 21.4916 -0.175476 13.0565 3.19989 4.98193 10.8239 -2.84217e-014 -2.84217e-014 -19.1796 -2.48645 2.87431 28.5356 2.84217e-014 2.84217e-014 0.891147 -2.48112 2.13663 24.5315 0 -2.84217e-014 1.18135 -2.48776 0.969183 -3.77033 21.4916 -0.175476 -14.7723 -1.76519 7.89647 -10.8239 2.84217e-014 0 12.2085 -2.74629 -0.881061 -28.5356 0 0 -2.58765 1.8063 -1.17875 -24.5315 2.84217e-014 -2.84217e-014 -0.332173 1.78542 -2.27394 9.52968 -1.42109e-014 -2.84217e-014 -0.38746 11.2441 3.67904 -7.10543e-015 -40.1884 0 -4.52622 -6.08915 -2.26169 -3.55271e-015 -39.9954 0 7.03529 -8.19979 3.61148 0 -6.19429 14.2945 2.98177e-016 0 3.18055e-015 -9.52968 1.42109e-014 -2.84217e-014 -1.24299 6.75831 -1.7379 -8.88178e-016 -40.1884 0 2.44487 0.774427 0.556293 4.44089e-016 -39.9954 -2.84217e-014 -4.30947 -12.0327 1.63071 -8.88178e-016 -6.19429 14.2945 0 7.95139e-016 -0 
0 0 0 0 0 -0 2.35002 81.122 -201.688 0.417321 -2.08836 2.31663 -1.77636e-015 7.81434 0 -1.84247 -2.66327 -0.431397 0 23.3781 0 -0.135759 -0.317188 -0.388931 8.88178e-016 23.2821 2.11656 0.910877 21.9577 0.13596 8.88178e-016 13.3416 -1.90594 -2.14949 -3.15376 -0.173054 3.82472 21.4916 -0.175476 13.0571 3.19337 4.9819 10.8239 2.84217e-014 -2.84217e-014 -19.1802 -2.48438 2.88433 28.5356 0 0 0.895088 -2.4805 2.12611 24.5315 2.84217e-014 0 1.14559 -2.48744 0.969183 -3.77033 21.4916 -0.175476 -14.7658 -1.75144 7.89641 -10.8239 0 2.84217e-014 12.2084 -2.77693 -0.87388 -28.5356 -2.84217e-014 -2.84217e-014 -2.57758 1.8063 -1.17875 -24.5315 0 -2.84217e-014 -0.365687 1.78543 -2.26745 9.52968 1.42109e-014 0 -0.386738 11.2303 3.6798 0 -40.1884 0 -4.52599 -6.08347 -2.26167 0 -39.9954 2.84217e-014 7.01802 -8.20275 3.60852 0 -6.19429 14.2945 -2.20695e-032 -7.95139e-016 -1.59028e-015 -9.52968 0 0 -1.23974 6.75159 -1.76731 0 -40.1884 -2.84217e-014 2.44441 0.774422 0.58987 -8.88178e-016 -39.9954 0 -4.32749 -12.0177 1.6327 0 -6.19429 14.2945 5.46658e-016 0 -0 
0 0 0 0 0 -0 2.35002 81.122 -201.688 0.413558 -2.07565 2.31037 0 7.81434 0 -1.84227 -2.66327 -0.427089 8.88178e-016 23.3781 -2.84217e-014 -0.135832 -0.331499 -0.384675 -1.77636e-015 23.2821 2.11656 0.901181 21.9627 0.135964 0 13.3416 -1.90594 -2.13187 -3.1397 -0.173052 3.82472 21.4916 -0.175476 13.0567 3.19545 4.98574 10.8239 0 2.84217e-014 -19.1799 -2.49694 2.88764 28.5356 -2.84217e-014 0 0.905703 -2.48291 2.11961 24.5315 0 2.84217e-014 1.16055 -2.48989 0.969185 -3.77033 21.4916 -0.175476 -14.7623 -1.76028 7.89645 -10.8239 0 0 12.2204 -2.78465 -0.874356 -28.5356 -2.84217e-014 0 -2.59198 1.8063 -1.17875 -24.5315 2.84217e-014 -2.84217e-014 -0.301443 1.78549 -2.22071 9.52968 -1.42109e-014 2.84217e-014 -0.386527 11.2201 3.68204 7.10543e-015 -40.1884 0 -4.52422 -6.0821 -2.24549 3.55271e-015 -39.9954 0 7.02843 -8.21348 3.59732 0 -6.19429 14.2945 -9.93923e-017 -7.95139e-016 3.18055e-015 -9.52968 -1.42109e-014 0 -1.24176 6.73713 -1.75313 1.77636e-015 -40.1884 -2.84217e-014 2.44448 0.774423 0.584578 -4.44089e-016 -39.9954 -2.84217e-014 -4.30751 -12.0316 1.62952 0 -6.19429 14.2945 -6.95746e-016 1.59028e-015 -3.97569e-016 
0 0 0 0 0 -0 2.35002 81.122 -201.688 0.410872 -2.066 2.30253 -1.77636e-015 7.81434 2.84217e-014 -1.84175 -2.66327 -0.42304 0 23.3781 2.84217e-014 -0.123789 -0.3475 -0.380682 8.88178e-016 23.2821 2.11656 0.90043 21.98 0.135981 -8.88178e-016 13.3416 -1.90594 -2.14639 -3.14113 -0.178943 3.82472 21.4916 -0.175476 13.0596 3.17211 4.96914 10.8239 -2.84217e-014 -2.84217e-014 -19.1799 -2.46366 2.92097 28.5356 0 0 0.919054 -2.48591 2.1012 24.5315 0 2.84217e-014 1.13785 -2.49285 0.969187 -3.77033 21.4916 -0.175476 -14.7616 -1.76178 7.89646 -10.8239 0 -2.84217e-014 12.2185 -2.80227 -0.864865 -28.5356 0 0 -2.59224 1.80716 -1.17875 -24.5315 -2.84217e-014 0 -0.279792 1.78594 -2.22686 9.52968 0 0 -0.386696 11.2149 3.68457 -7.10543e-015 -40.1884 0 -4.52708 -6.09173 -2.26888 0 -39.9954 0 7.0365 -8.19391 3.63216 0 -6.19429 14.2945 -1.2921e-015 0 -0 -9.52968 0 0 -1.24292 6.72965 -1.74419 8.88178e-016 -40.1884 -2.84217e-014 2.44446 0.774423 0.586432 -4.44089e-016 -39.9954 0 -4.31726 -12.0289 1.61075 8.88178e-016 -6.19429 14.2945 1.98785e-016 0 -0 
0 0 0 0 0 -0 2.35173 81.122 -201.688 0.410089 -2.05815 2.30071 0 7.81434 0 -1.8415 -2.66327 -0.422991 0 23.3781 -2.84217e-014 -0.128325 -0.36072 -0.380623 0 23.2821 2.11656 0.886703 21.9925 0.135993 0 13.3416 -1.90594 -2.1267 -3.13547 -0.170353 3.82472 21.4916 -0.175476 13.0653 3.15658 4.97717 10.8239 0 0 -19.1761 -2.46951 2.92377 28.5356 -2.84217e-014 2.84217e-014 0.918736 -2.4887 2.09522 24.5315 0 2.84217e-014 1.13135 -2.49563 0.969189 -3.77033 21.4916 -0.175476 -14.7587 -1.75963 7.89645 -10.8239 2.84217e-014 0 12.2302 -2.79783 -0.864304 -28.5356 2.84217e-014 -2.84217e-014 -2.61 1.79378 -1.17194 -24.5315 2.84217e-014 0 -0.156212 1.77015 -2.24039 9.52968 0 -2.84217e-014 -0.386737 11.2094 3.68657 0 -40.1884 0 -4.52606 -6.10236 -2.25532 0 -39.9954 -2.84217e-014 7.04485 -8.18474 3.60101 0 -6.19429 14.2945 -2.98177e-016 0 -0 -9.52968 1.42109e-014 0 -1.24139 6.72303 -1.75788 -8.88178e-016 -40.1884 0 2.44456 0.768163 0.583748 8.88178e-016 -39.9954 0 -4.29819 -12.0212 1.63643 -8.88178e-016 -6.19429 14.2945 5.46658e-016 2.38542e-015 -7.95139e-016 
0 0 0 0 0 -0 2.35339 81.122 -201.688 0.409484 -2.05245 2.29666 0 7.81434 0 -1.84112 -2.6576 -0.420004 8.88178e-016 23.3781 -2.84217e-014 -0.11548 -0.379932 -0.377725 0 23.2821 2.11656 0.860933 22.0256 0.138422 0 13.3416 -1.90594 -2.11806 -3.16559 -0.167892 3.82472 21.4916 -0.175476 13.0506 3.15995 4.97804 10.8239 -2.84217e-014 0 -19.1633 -2.48423 2.93173 28.5356 2.84217e-014 0 0.913439 -2.49058 2.0857 24.5315 -2.84217e-014 2.84217e-014 1.14415 -2.49749 0.96919 -3.77033 21.4916 -0.175476 -14.7756 -1.74656 7.89639 -10.8239 -2.84217e-014 -2.84217e-014 12.2479 -2.808 -0.852354 -28.5356 2.84217e-014 0 -2.62399 1.78378 -1.15375 -24.5315 0 0 -0.127996 1.75993 -2.25853 9.52968 0 2.84217e-014 -0.386328 11.2056 3.68568 0 -40.1884 0 -4.52541 -6.09532 -2.25179 -3.55271e-015 -39.9954 0 7.0444 -8.18584 3.61203 0 -6.19429 14.2945 7.95139e-016 1.59028e-015 -0 -9.52968 0 -2.84217e-014 -1.24203 6.72048 -1.75214 0 -40.1884 0 2.44507 0.758432 0.552311 4.44089e-016 -39.9954 0 -4.29069 -12.0113 1.6748 8.88178e-016 -6.19429 14.2945 1.98785e-016 0 -3.97569e-016 
0 0 0 0 0 -0 2.35514 81.122 -201.688 0.409037 -2.0476 2.29237 0 7.81434 -5.68434e-014 -1.84074 -2.6516 -0.416485 8.88178e-016 23.3781 2.84217e-014 -0.133779 -0.391217 -0.374312 8.88178e-016 23.2821 2.11656 0.875085 22.0363 0.140344 8.88178e-016 13.3416 -1.90594 -2.11966 -3.16342 -0.163809 3.82472 21.4916 -0.175476 13.0651 3.15973 4.97547 10.8239 0 0 -19.1643 -2.50317 2.9265 28.5356 -2.84217e-014 0 0.915562 -2.48636 2.08024 24.5315 0 0 1.15092 -2.4933 0.969187 -3.77033 21.4916 -0.175476 -14.7549 -1.74384 7.89638 -10.8239 0 -2.84217e-014 12.2399 -2.83702 -0.846504 -28.5356 -2.84217e-014 0 -2.6084 1.78607 -1.14858 -24.5315 -2.84217e-014 0 -0.165123 1.76257 -2.27553 9.52968 -1.42109e-014 0 -0.387328 11.2111 3.68902 0 -40.1884 0 -4.52688 -6.10839 -2.26079 -3.55271e-015 -39.9954 -2.84217e-014 7.03501 -8.18878 3.61275 0 -6.19429 14.2945 1.09332e-015 -1.59028e-015 -1.59028e-015 -9.52968 0 -2.84217e-014 -1.24353 6.71948 -1.73899 0 -40.1884 0 2.44679 0.747148 0.428894 8.88178e-016 -39.9954 -2.84217e-014 -4.26478 -12.0125 1.7939 -8.88178e-016 -6.19429 14.2945 -3.47873e-016 0 -0 
